<?xml version="1.0" encoding="utf-8"?>
<!-- Generator: Adobe Illustrator 24.2.3, SVG Export Plug-In . SVG Version: 6.00 Build 0)  -->
<svg version="1.1" id="Layer_1" xmlns="http://www.w3.org/2000/svg" xmlns:xlink="http://www.w3.org/1999/xlink" x="0px" y="0px"
	 viewBox="0 0 100 100" style="enable-background:new 0 0 100 100;" xml:space="preserve">
<style type="text/css">
	.st0{fill:#FFFFFF;}
</style>
<path class="st0" d="M10,0h80c5.5,0,10,4.5,10,10l0,0c0,5.5-4.5,10-10,10H10C4.5,20,0,15.5,0,10l0,0C0,4.5,4.5,0,10,0z"/>
<path class="st0" d="M10,40h42c5.5,0,10,4.5,10,10l0,0c0,5.5-4.5,10-10,10H10C4.5,60,0,55.5,0,50l0,0C0,44.5,4.5,40,10,40z"/>
<path class="st0" d="M10,80h80c5.5,0,10,4.5,10,10l0,0c0,5.5-4.5,10-10,10H10c-5.5,0-10-4.5-10-10l0,0C0,84.5,4.5,80,10,80z"/>
</svg>
