<svg id="Layer_1" data-name="Layer 1" xmlns="http://www.w3.org/2000/svg" viewBox="0 0 1000 44.27"><defs><style>.cls-1{fill:#080808;}</style></defs><path class="cls-1" d="M1000,0V25.16c-29.43-.5-58.53-2.13-85.92-4.81-17.48-1.72-34.36-3.87-52.62-5s-38.68-1.12-54.71,1.3c-26.9,4.07-34,13.58-61.61,17.35-27.07,3.68-61.32.15-85.23-4.68s-44.27-11.07-73.08-13.85c-33.33-3.22-70.82-1.15-105.6,1-28.15,1.71-56.4,3.42-83.42,6-14.42,1.38-30.12,3-44.77,1.81C337.69,23,329.18,19,316.67,16.52c-26-5.26-66.43-3.57-93.79,1.26s-45.52,12.07-66,18.65A150.2,150.2,0,0,1,112,44.25c-19.74.33-37.21-3.37-47-7.59S50.86,27.6,42.41,23.22,19.54,14.63,0,13.88V0Z"/></svg>